<svg width="100" height="100" viewBox="0 0 100 100" fill="none" xmlns="http://www.w3.org/2000/svg">
<circle cx="50" cy="50" r="50" fill="white"/>
<path fill-rule="evenodd" clip-rule="evenodd" d="M86.619 84.0451C94.9217 75.1187 100 63.1524 100 50C100 37.8081 95.6364 26.6353 88.3856 17.9584C88.5695 18.2368 88.7496 18.5194 88.926 18.806C91.7847 23.362 93.214 28.722 93.214 34.886C93.214 41.1393 91.606 46.678 88.39 51.502C85.2633 56.2367 81.02 59.7653 75.66 62.088L85.71 82.456C86.0054 83.0467 86.3083 83.5764 86.619 84.0451ZM76.9118 92.1471C75.8483 90.947 74.8951 89.5926 74.052 88.084L62.796 65.17C61.9027 65.2593 60.92 65.3487 59.848 65.438H56.766H33.048V97.0531C38.3414 98.9605 44.0493 100 50 100C59.9078 100 69.1426 97.1182 76.9118 92.1471ZM20.184 90.1412C7.93494 81.028 0 66.4406 0 50C0 33.5594 7.93494 18.972 20.184 9.8588V90.1412ZM29.9097 4.2H61.322C66.9396 4.2 72.0706 5.37587 76.715 7.72763C68.9868 2.8334 59.8243 0 50 0C42.854 0 36.0581 1.49911 29.9097 4.2ZM59.58 54.048H33.048V15.59H59.714C63.466 15.59 66.9053 16.3493 70.032 17.868C73.1587 19.3867 75.66 21.5753 77.536 24.434C79.412 27.2927 80.35 30.7767 80.35 34.886C80.35 38.906 79.412 42.3453 77.536 45.204C75.7493 48.0627 73.248 50.2513 70.032 51.77C66.9053 53.2887 63.4213 54.048 59.58 54.048Z" fill="black"/>
</svg>
